<svg width="51" height="74" viewBox="0 0 51 74" fill="none" xmlns="http://www.w3.org/2000/svg">
<path d="M0 48V0.799997H2.4V48H0ZM4.8 48V0.799997H12V48H4.8ZM14.4 48V0.799997H19.2V48H14.4ZM6.96 54.96H8.64L13.2 64.08L17.84 54.96H19.44V73.52H17.44V59.52L13.44 67.04H12.64L8.88 59.6V73.52H6.96V54.96ZM26.4062 48V0.799997H33.6063V48H26.4062ZM36.0063 48V0.799997H43.2063V48H36.0063ZM45.6063 48V0.799997H50.4063V48H45.6063ZM33.9263 54.96H39.8463C41.8196 54.96 43.2863 55.4667 44.2463 56.48C45.2596 57.44 45.7663 58.6933 45.7663 60.24C45.7663 61.7333 45.2863 62.96 44.3263 63.92C43.3663 64.88 41.9263 65.36 40.0063 65.36H36.0863V73.52H33.9263V54.96ZM39.7663 63.52C41.0996 63.52 42.0596 63.2267 42.6463 62.64C43.2863 62.1067 43.6063 61.3333 43.6063 60.32C43.6063 59.3067 43.2863 58.5067 42.6463 57.92C42.0063 57.28 41.0729 56.96 39.8463 56.96H36.0863V63.52H39.7663Z" fill="white"/>
</svg>
